# xmcd CD database file
#
# Track frame offsets:
#	150
#	21385
#	38345
#
# Disc length: 754 seconds
#
# Revision: 0
# Processed by: cddbd v1.5.1PL0 Copyright (c) Steve Scherf et al.
# Submitted via: CDex 1.50
#
DISCID=1802f003
DTITLE=ion - 東郷
DYEAR=2005
DGENRE=Game
TTITLE0=幽雅に咲かせ、墨染めの桜 [Piano'n Trance]
TTITLE1=シンデレラケージ [HappyHardcore Edit]
TTITLE2=U.N.オーエンは彼女なのか？ [Human Trance Edit]
EXTD=YEAR: 2005
EXTT0=
EXTT1=
EXTT2=
PLAYORDER=
